<svg width="271" height="151" viewBox="0 0 271 151" fill="none" xmlns="http://www.w3.org/2000/svg">
<path d="M237.522 79.1423H135.983L144.072 87.2306L237.522 79.1423ZM145.389 46.4272V47.6499C143.504 46.4492 141.813 45.7505 139.498 45.7505C132.384 45.7505 126.98 52.2374 126.98 60.2042C126.98 68.1732 132.384 74.6563 139.498 74.6563C141.813 74.6563 143.504 73.9606 145.389 72.7578V73.9795H151.642V46.4272H145.389ZM139.498 68.0215C135.99 68.0215 133.422 64.5675 133.422 60.2043C133.422 55.8442 135.99 52.3897 139.498 52.3897C143.01 52.3897 145.485 55.8442 145.485 60.2043C145.485 64.5675 143.01 68.0215 139.498 68.0215ZM195.481 46.4272V62.6126C195.481 65.6486 193.396 68.2127 190.357 68.2127C187.322 68.2127 185.234 65.6486 185.234 62.6126V46.4272H178.981V62.6126C178.981 69.2537 183.524 74.6563 190.166 74.6563C193.242 74.6563 195.481 72.9551 195.481 72.9551V73.9795H201.735V46.4272H195.481V46.4272ZM253.748 73.9796V57.7942C253.748 54.7582 255.833 52.1941 258.871 52.1941C261.907 52.1941 263.994 54.7582 263.994 57.7942V73.9796H270.248V57.7942C270.248 51.1531 265.705 45.7505 259.063 45.7505C255.987 45.7505 253.748 47.4517 253.748 47.4517V46.4272H247.494V73.9795H253.748V73.9796Z" fill="#BF0000"/>
<path d="M108.958 73.9795V63.3051H113.584L121.592 73.9795H129.779L120.102 61.0993C123.117 58.9346 125.098 55.4147 125.098 51.4275C125.098 44.8796 119.774 39.5613 113.226 39.5613H102.418V73.9796H108.958V73.9795ZM108.958 46.096H113.226C116.163 46.096 118.564 48.4851 118.564 51.4274C118.564 54.3778 116.163 56.7651 113.226 56.7651H108.958V46.096ZM218.589 67.46C218.027 67.841 217.318 68.1376 216.498 68.1376C215.476 68.1376 213.55 67.357 213.55 64.7572V52.9666H218.898V46.4268H213.55L213.549 39.5609H207.296L207.297 46.4268H203.989V52.9666H207.297V64.8528C207.295 71.0051 211.93 74.68 216.593 74.68C218.331 74.68 220.743 74.111 222.71 72.9458L218.589 67.46ZM167.189 59.3421L177.916 46.4271H169.15L161.648 56.0254V37.2856H155.209V73.9795H161.648V62.6614L170.871 73.9795H179.632L167.189 59.3421Z" fill="#BF0000"/>
<path d="M233.034 45.728C225.797 45.728 220.605 52.088 220.605 60.2033C220.605 68.7362 227.122 74.6808 233.656 74.6808C236.954 74.6808 241.18 73.55 244.73 68.5132L239.207 65.3236C234.936 71.6202 227.817 68.4243 226.995 62.1282L245.007 62.1322C246.548 52.2362 240.15 45.728 233.034 45.728ZM238.493 56.6469H227.231C228.547 50.1937 237.275 49.8235 238.493 56.6469Z" fill="#BF0000"/>
<path d="M85.361 62.2581C85.361 57.5147 81.5157 53.6694 76.7722 53.6694C72.0288 53.6694 68.1836 57.5148 68.1836 62.2581C68.1836 67.0014 72.0288 70.8465 76.7722 70.8465C81.5158 70.8465 85.361 67.0014 85.361 62.2581V62.2581Z" fill="#1D428A"/>
<path d="M41.151 0.399902H12.8912C5.99744 0.399902 0.398438 6.0072 0.398438 12.8923V108.584C0.398438 115.479 5.99734 121.093 12.8912 121.093H41.1313C48.0235 121.093 53.6515 115.479 53.6515 108.584V12.8923C53.6514 6.0072 48.0404 0.399902 41.151 0.399902Z" fill="white"/>
<path d="M34.1432 22.5259L34.1728 22.9345C35.0349 23.4362 35.471 23.8454 36.3395 24.405C38.6449 25.8554 41.4832 28.4335 41.1253 37.3191C41.7714 39.2568 42.0572 43.065 42.6539 44.2856C43.8543 46.6654 44.6558 48.2138 45.006 50.461C45.006 50.461 45.3525 53.9583 45.8032 54.2112C48.1866 54.7484 47.4979 54.9834 47.8461 55.3914C48.2158 55.8703 49.5916 55.8479 49.5916 57.1301C50.0696 57.7695 50.4219 58.4329 50.6911 59.124V12.8922C50.6911 7.6234 46.406 3.3457 41.153 3.3457H32.0223C33.4895 3.8661 34.3168 4.4821 34.7998 5.459C35.9795 5.5599 37.3811 8.2025 35.197 12.1059C36.1648 12.7495 35.41 13.712 34.7158 14.8295C34.513 15.1884 34.2907 15.8239 33.6443 15.7822C32.8156 17.526 31.8137 19.2162 31.058 19.3233C30.8286 19.606 30.6618 20.3568 31.007 20.7093C32.1183 21.2074 33.4725 21.8905 34.1432 22.5259V22.5259ZM50.691 65.3872C49.4523 68.53 46.3686 70.7514 42.7658 70.7514C38.0511 70.7514 34.251 66.9405 34.251 62.2412C34.251 58.2251 37.0115 54.8572 40.7575 53.9586C39.7758 51.5026 37.7039 47.5216 37.0884 46.2146C36.5057 44.9178 35.1019 36.8216 34.7996 35.2199C34.7309 34.8706 31.1264 37.3117 31.1194 37.4626C30.9087 37.6672 28.4148 44.1797 28.3105 44.5315C28.2599 44.7533 28.2539 45.6232 28.2539 45.6232C28.2539 45.6232 29.4802 45.7745 30.1861 47.9137C30.8841 50.0502 33.0135 57.8502 33.0135 57.8502C33.0135 57.8502 32.4375 58.4467 32.4126 58.4098C35.1019 67.4137 34.162 71.2887 35.3688 73.9286C36.8861 77.6502 37.295 77.1621 38.596 80.2901C39.5302 82.5682 40.5709 91.5331 40.9189 91.9307C42.371 93.7707 43.1522 95.2103 43.1522 96.2486C43.1522 97.2927 41.9225 100.38 42.371 102.178C42.6426 103.236 42.7846 105.608 43.2775 106.059C43.2775 106.059 43.7293 106.949 43.5073 107.344C43.4433 107.481 43.3146 107.686 43.3724 107.85C44.1732 110.678 46.7582 115.499 42.5719 118.024H42.6613C47.2305 117.316 50.691 113.397 50.691 108.584V65.3872Z" fill="#C8102E"/>
<path d="M39.9366 106.75C38.4016 105.38 39.427 104.802 39.3657 104.261C38.3534 100.081 35.0333 97.5527 36.7502 96.1726C36.3269 94.7919 35.4645 93.0589 35.4962 93.0624C30.3215 90.0905 25.9156 85.2642 25.1673 84.5568C24.26 83.5709 22.7141 82.5792 22.4237 81.779C21.1799 80.6361 15.0814 71.9848 13.6608 68.7998L11.1853 68.4493C10.0596 63.8496 6.30055 59.9948 6.20715 55.3826C6.17215 53.6396 6.99725 49.9038 7.30505 49.1591C7.60555 48.4039 9.04625 47.1631 9.04625 47.1631V45.9292C3.64685 46.0827 5.19945 45.5311 4.26865 43.4321C3.61525 41.978 4.08325 41.6588 4.31875 40.6506C5.04315 37.6748 7.45025 33.0857 8.44595 31.0001C8.74995 29.948 9.79125 27.4111 9.79125 27.4111C13.8158 19.2161 15.3181 19.8188 20.0979 19.3566L20.3331 19.0177C25.1226 18.8109 24.3385 18.4492 25.0144 13.8355C24.3161 14.1349 24.1092 12.3907 24.1092 12.3907C23.7277 9.76483 24.8348 10.2623 25.3607 10.2101C25.4731 5.89333 25.9156 4.53473 29.0292 3.34473H12.8971C7.61895 3.34473 3.34375 7.62353 3.34375 12.8975V108.584C3.34375 113.864 7.61895 118.142 12.8971 118.142H41.1516C37.9168 116.394 39.8263 113.066 39.9366 106.75V106.75Z" fill="#1D428A"/>
<path d="M18.2438 112.128V94.8032H21.6042C23.5485 94.8032 24.7501 95.8473 24.7501 98.2742V100.846C24.7501 102.422 24.2702 103.224 23.5964 103.612C24.2703 104.074 24.7501 104.85 24.7501 106.159V108.683C24.7501 111.061 23.4771 112.128 21.6042 112.128H18.2438V112.128ZM20.5484 104.606V109.944H21.4363C22.2291 109.944 22.4451 109.531 22.4451 108.706V105.77C22.4451 104.921 22.1809 104.606 21.4124 104.606H20.5484V104.606ZM20.5484 96.987V102.713H21.4124C22.2291 102.713 22.4451 102.421 22.4451 101.477V98.1529C22.4451 97.3507 22.2036 96.987 21.4363 96.987H20.5484V96.987ZM30.176 108.609H28.0872L27.7976 112.128H25.4694L27.5583 94.8032H30.8716L32.8881 112.128H30.4637L30.176 108.609V108.609ZM29.1427 96.7452H29.0227C28.8789 98.8312 28.5909 102.496 28.4945 103.66L28.2315 106.644H30.0317L29.7671 103.66C29.6706 102.472 29.335 98.8567 29.1427 96.7452ZM11.3771 112.128H9.35938V94.8032H12.5543L15.1228 108.998C14.9069 105.603 14.6173 101.501 14.6173 98.007V94.8032H16.6357V112.128H13.7057L11.1379 98.248C11.3058 101.451 11.3771 104 11.3771 106.669V112.128V112.128Z" fill="white"/>
<path d="M19.2741 143.324C19.2741 144.815 18.9975 146.135 18.4446 147.284C17.8914 148.432 17.1055 149.316 16.0866 149.935C15.068 150.555 13.9075 150.865 12.6051 150.865C11.303 150.865 10.1478 150.566 9.13973 149.967C8.13143 149.368 7.34523 148.512 6.78203 147.399C6.21843 146.286 5.92223 145.008 5.89453 143.566V142.705C5.89453 141.207 6.16923 139.885 6.71873 138.74C7.26853 137.595 8.05603 136.711 9.08183 136.088C10.1076 135.465 11.2749 135.154 12.5844 135.154C13.8796 135.154 15.0348 135.462 16.0501 136.078C17.0652 136.694 17.8546 137.571 18.4183 138.709C18.9817 139.846 19.267 141.15 19.2742 142.621V143.324H19.2741ZM15.5249 142.684C15.5249 141.164 15.271 140.011 14.7634 139.223C14.2557 138.435 13.5294 138.042 12.5844 138.042C10.7359 138.042 9.75933 139.428 9.65423 142.2L9.64383 143.324C9.64383 144.823 9.89223 145.974 10.3893 146.779C10.8863 147.585 11.625 147.987 12.6052 147.987C13.5362 147.987 14.2542 147.592 14.7582 146.8C15.2623 146.009 15.5178 144.871 15.525 143.387V142.684H15.5249ZM21.7946 150.655V141.749H20.1456V139.291H21.7946V138.388C21.7946 137.093 22.176 136.088 22.9393 135.374C23.7022 134.66 24.7735 134.303 26.1529 134.303C26.657 134.303 27.21 134.376 27.8123 134.523L27.8226 137.128C27.6056 137.065 27.3149 137.033 26.9508 137.033C25.8799 137.033 25.3442 137.495 25.3442 138.419V139.291H28.9252V138.913C28.9463 137.401 29.4433 136.242 30.4166 135.437C31.3408 134.681 32.6325 134.303 34.2918 134.303C35.328 134.303 36.5639 134.506 37.9991 134.912L37.5054 137.706L36.9174 137.548C36.1543 137.345 35.3527 137.243 34.5124 137.243C33.1612 137.243 32.4857 137.86 32.4857 139.092V139.291H34.7015V141.749H32.4857V150.655H28.9252V141.749H25.3442V150.655H21.7946V150.655ZM39.6166 150.655H36.0669V139.291H39.6166V150.655ZM46.5903 148.134C47.0873 148.134 47.4725 147.999 47.7456 147.73C48.0185 147.46 48.1514 147.084 48.1446 146.601H51.4632C51.4632 147.847 51.0171 148.869 50.1242 149.667C49.2315 150.466 48.0817 150.865 46.6743 150.865C45.0218 150.865 43.7197 150.347 42.7675 149.31C41.8152 148.274 41.3392 146.839 41.3392 145.005V144.857C41.3392 143.709 41.551 142.696 41.9747 141.817C42.3981 140.939 43.009 140.263 43.8072 139.79C44.6055 139.318 45.5505 139.081 46.6427 139.081C48.1201 139.081 49.2927 139.491 50.1608 140.31C51.0291 141.129 51.4631 142.239 51.4631 143.639H48.1445C48.1445 143.051 48.001 142.6 47.7139 142.284C47.4269 141.969 47.0418 141.812 46.5586 141.812C45.6413 141.812 45.1059 142.396 44.952 143.566C44.9028 143.937 44.8784 144.448 44.8784 145.099C44.8784 146.24 45.0148 147.031 45.2878 147.473C45.561 147.914 45.9951 148.134 46.5903 148.134V148.134ZM52.9335 136.361C52.9335 135.857 53.1155 135.444 53.4796 135.122C53.8435 134.8 54.3163 134.639 54.8975 134.639C55.4784 134.639 55.9512 134.8 56.3153 135.122C56.6792 135.444 56.8613 135.857 56.8613 136.361C56.8613 136.865 56.6792 137.279 56.3153 137.6C55.9512 137.923 55.4783 138.084 54.8975 138.084C54.3163 138.084 53.8435 137.923 53.4796 137.6C53.1155 137.279 52.9335 136.865 52.9335 136.361V136.361ZM56.6932 150.655H53.1434V139.291H56.6932V150.655ZM65.2735 150.655C65.1476 150.424 65.0356 150.084 64.9377 149.636C64.2865 150.455 63.3762 150.865 62.2071 150.865C61.1357 150.865 60.2255 150.541 59.4764 149.893C58.7272 149.246 58.3527 148.432 58.3527 147.451C58.3527 146.219 58.8077 145.288 59.7182 144.658C60.6281 144.028 61.9514 143.713 63.6878 143.713H64.7802V143.111C64.7802 142.063 64.3285 141.539 63.4253 141.539C62.5853 141.539 62.1651 141.954 62.1651 142.784H58.6258C58.6258 141.686 59.0932 140.794 60.0281 140.109C60.9627 139.424 62.1548 139.081 63.6039 139.081C65.0533 139.081 66.1979 139.435 67.0381 140.142C67.8783 140.849 68.3089 141.819 68.3298 143.051V148.081C68.3438 149.125 68.5049 149.923 68.8131 150.476V150.655H65.2735V150.655ZM63.0576 148.344C63.4986 148.344 63.8644 148.25 64.155 148.061C64.4456 147.872 64.6539 147.658 64.7801 147.42V145.603H63.7508C62.5185 145.603 61.9024 146.156 61.9024 147.262C61.9024 147.585 62.0107 147.845 62.2282 148.045C62.4449 148.244 62.7215 148.344 63.0576 148.344V148.344ZM74.0217 150.655H70.472V134.523H74.0217V150.655ZM85.4061 145.467V150.655H81.7199V135.363H87.8217C88.991 135.363 90.0252 135.579 90.9251 136.009C91.8246 136.44 92.5213 137.053 93.015 137.848C93.5086 138.642 93.7553 139.543 93.7553 140.552C93.7553 142.043 93.2214 143.235 92.1539 144.128C91.0861 145.02 89.6211 145.467 87.7586 145.467H85.4061V145.467ZM85.4061 142.621H87.8217C88.5358 142.621 89.0802 142.442 89.4548 142.085C89.8293 141.728 90.0167 141.224 90.0167 140.573C90.0167 139.859 89.824 139.288 89.4391 138.861C89.0538 138.434 88.5288 138.217 87.8637 138.21H85.406V142.621H85.4061ZM101.842 150.655C101.716 150.424 101.604 150.084 101.506 149.636C100.855 150.455 99.9448 150.865 98.7755 150.865C97.7042 150.865 96.7939 150.541 96.0449 149.893C95.2957 149.246 94.9212 148.432 94.9212 147.451C94.9212 146.219 95.3762 145.288 96.2867 144.658C97.1966 144.028 98.5199 143.713 100.256 143.713H101.349V143.111C101.349 142.063 100.897 141.539 99.9937 141.539C99.1537 141.539 98.7336 141.954 98.7336 142.784H95.1943C95.1943 141.686 95.6616 140.794 96.5965 140.109C97.5312 139.424 98.7232 139.081 100.172 139.081C101.622 139.081 102.766 139.435 103.607 140.142C104.447 140.849 104.877 141.819 104.898 143.051V148.081C104.912 149.125 105.073 149.923 105.381 150.476V150.655H101.842V150.655ZM99.6261 148.344C100.067 148.344 100.433 148.25 100.724 148.061C101.014 147.872 101.222 147.658 101.349 147.42V145.603H100.319C99.0869 145.603 98.4708 146.156 98.4708 147.262C98.4708 147.585 98.5792 147.845 98.7966 148.045C99.0132 148.244 99.2898 148.344 99.6261 148.344V148.344ZM113.731 142.495L112.565 142.411C111.452 142.411 110.738 142.761 110.423 143.461V150.655H106.883V139.291H110.202L110.317 140.751C110.913 139.638 111.742 139.081 112.807 139.081C113.185 139.081 113.514 139.123 113.794 139.207L113.731 142.495ZM119.654 136.466V139.291H121.523V141.749H119.654V146.947C119.654 147.375 119.731 147.672 119.885 147.84C120.039 148.008 120.343 148.092 120.799 148.092C121.148 148.092 121.443 148.071 121.681 148.029V150.56C121.044 150.763 120.378 150.865 119.685 150.865C118.467 150.865 117.567 150.578 116.986 150.004C116.405 149.429 116.114 148.558 116.114 147.388V141.749H114.665V139.291H116.114V136.466H119.654V136.466ZM126.165 139.291L126.281 140.625C127.065 139.596 128.146 139.081 129.526 139.081C130.709 139.081 131.593 139.435 132.177 140.142C132.762 140.849 133.065 141.913 133.086 143.335V150.655H129.536V143.482C129.536 142.908 129.421 142.486 129.19 142.216C128.959 141.947 128.539 141.812 127.929 141.812C127.237 141.812 126.722 142.085 126.385 142.631V150.655H122.846V139.291H126.165V139.291ZM140.543 150.865C138.799 150.865 137.388 150.345 136.31 149.305C135.232 148.265 134.693 146.913 134.693 145.246V144.952C134.693 143.79 134.908 142.764 135.339 141.875C135.769 140.986 136.398 140.298 137.224 139.811C138.05 139.325 139.03 139.081 140.164 139.081C141.761 139.081 143.021 139.577 143.945 140.567C144.869 141.558 145.331 142.939 145.331 144.71V146.086H138.295C138.421 146.723 138.698 147.224 139.125 147.588C139.552 147.952 140.105 148.134 140.784 148.134C141.904 148.134 142.779 147.742 143.409 146.958L145.027 148.869C144.586 149.479 143.961 149.963 143.152 150.324C142.344 150.684 141.474 150.865 140.543 150.865V150.865ZM140.144 141.812C139.107 141.812 138.491 142.498 138.295 143.87H141.866V143.597C141.88 143.03 141.736 142.591 141.435 142.279C141.134 141.968 140.704 141.812 140.144 141.812V141.812ZM153.628 142.495L152.462 142.411C151.349 142.411 150.635 142.761 150.32 143.461V150.655H146.781V139.291H150.1L150.215 140.751C150.81 139.638 151.64 139.081 152.704 139.081C153.082 139.081 153.411 139.123 153.691 139.207L153.628 142.495ZM159.814 144.868C159.814 143.734 160.034 142.724 160.475 141.838C160.917 140.952 161.55 140.272 162.376 139.796C163.203 139.319 164.172 139.081 165.286 139.081C166.987 139.081 168.327 139.608 169.308 140.662C170.288 141.716 170.778 143.149 170.778 144.963V145.089C170.778 146.86 170.286 148.265 169.303 149.305C168.319 150.345 166.987 150.865 165.306 150.865C163.689 150.865 162.39 150.38 161.41 149.41C160.43 148.44 159.901 147.126 159.824 145.467L159.814 144.868V144.868ZM163.353 145.089C163.353 146.139 163.518 146.909 163.847 147.399C164.176 147.889 164.662 148.134 165.306 148.134C166.567 148.134 167.211 147.164 167.239 145.225V144.868C167.239 142.831 166.588 141.812 165.286 141.812C164.102 141.812 163.461 142.691 163.363 144.448L163.353 145.089ZM173.12 150.655V141.749H171.471V139.291H173.12V138.388C173.12 137.093 173.502 136.088 174.265 135.374C175.028 134.66 176.099 134.303 177.479 134.303C177.983 134.303 178.536 134.376 179.138 134.523L179.149 137.128C178.931 137.065 178.641 137.033 178.277 137.033C177.206 137.033 176.67 137.495 176.67 138.419V139.291H178.886V141.749H176.67V150.655H173.12V150.655ZM189.609 136.466V139.291H191.478V141.749H189.609V146.947C189.609 147.375 189.686 147.672 189.84 147.84C189.994 148.008 190.299 148.092 190.754 148.092C191.104 148.092 191.398 148.071 191.636 148.029V150.56C190.998 150.763 190.334 150.865 189.641 150.865C188.422 150.865 187.522 150.578 186.941 150.004C186.36 149.429 186.07 148.558 186.07 147.388V141.749H184.62V139.291H186.07V136.466H189.609V136.466ZM196.331 140.509C197.086 139.558 198.053 139.081 199.229 139.081C200.482 139.081 201.428 139.453 202.065 140.195C202.702 140.937 203.027 142.032 203.041 143.482V150.655H199.492V143.566C199.492 142.964 199.369 142.521 199.124 142.237C198.879 141.954 198.462 141.812 197.875 141.812C197.146 141.812 196.632 142.043 196.331 142.505V150.655H192.791V134.524H196.331V140.509ZM210.508 150.865C208.765 150.865 207.354 150.345 206.276 149.305C205.197 148.265 204.658 146.913 204.658 145.246V144.952C204.658 143.79 204.874 142.764 205.305 141.875C205.735 140.986 206.364 140.298 207.19 139.811C208.016 139.325 208.996 139.081 210.13 139.081C211.727 139.081 212.987 139.577 213.911 140.567C214.835 141.558 215.298 142.939 215.298 144.71V146.086H208.261C208.387 146.723 208.663 147.224 209.091 147.588C209.518 147.952 210.071 148.134 210.75 148.134C211.87 148.134 212.746 147.742 213.376 146.958L214.993 148.869C214.552 149.479 213.927 149.963 213.118 150.324C212.31 150.684 211.439 150.865 210.508 150.865V150.865ZM210.109 141.812C209.073 141.812 208.457 142.498 208.261 143.87H211.832V143.597C211.846 143.03 211.702 142.591 211.401 142.279C211.1 141.968 210.669 141.812 210.109 141.812ZM235.009 150.655H231.344L225.925 141.14V150.655H222.239V135.363H225.925L231.334 144.879V135.363H235.009V150.655H235.009ZM237.341 150.655V135.363H242.834C244.801 135.363 246.298 135.724 247.324 136.445C248.349 137.167 248.862 138.213 248.862 139.586C248.862 140.377 248.68 141.052 248.316 141.612C247.952 142.173 247.417 142.586 246.709 142.852C247.507 143.062 248.12 143.454 248.547 144.028C248.974 144.602 249.188 145.302 249.188 146.128C249.188 147.626 248.713 148.752 247.765 149.505C246.816 150.257 245.411 150.641 243.548 150.655H237.341V150.655ZM241.028 141.738H242.95C243.754 141.731 244.329 141.584 244.672 141.296C245.015 141.008 245.186 140.583 245.186 140.021C245.186 139.375 245.001 138.91 244.63 138.626C244.259 138.341 243.66 138.199 242.834 138.199H241.028V141.738H241.028ZM241.028 144.154V147.819H243.443C244.108 147.819 244.619 147.667 244.977 147.362C245.333 147.058 245.512 146.629 245.512 146.076C245.512 144.801 244.878 144.161 243.611 144.154H241.028V144.154ZM259.9 147.798H254.848L253.966 150.655H250.028L255.636 135.363H259.102L264.752 150.655H260.792L259.9 147.798V147.798ZM255.73 144.952H259.017L257.369 139.648L255.73 144.952Z" fill="#1D428A"/>
</svg>
